#!OML:ASF F:\VICON\USERDATA\INSTALL\rory3\rory3.ASF
:FULLY-SPECIFIED
:DEGREES
1051
root 0.603269 16.0185 0.208995 -1.0582 -3.7374 -0.913492
lowerback 8.57108 0.623731 -3.09695
upperback -2.15086 0.519409 0.508318
thorax -7.11561 0.399942 2.20249
lowerneck -10.6708 -8.19198 -12.7697
upperneck 37.0781 -10.4298 3.46045
head 15.8692 -5.81237 1.91276
rclavicle 1.02001e-014 -3.57812e-015
rhumerus -20.1646 -39.4173 -34.9313
rradius 75.945
rwrist 36.4354
rhand 14.0312 7.37133
rfingers 7.12502
rthumb 38.939 -18.1661
lclavicle 1.02001e-014 -3.57812e-015
lhumerus -117.233 -58.0397 145.716
lradius 103.402
lwrist 43.3419
lhand 2.58484 7.6233
lfingers 7.12502
lthumb 28.0638 35.5442
rfemur -0.653492 14.0679 17.2989
rtibia 18.3729
rfoot -12.5367 -12.4708
rtoes -7.39222
lfemur 2.46711 -9.97283 -18.5806
ltibia 14.6504
lfoot -12.4099 10.1208
ltoes -8.29338
1052
root 0.605176 16.0189 0.210392 -1.09854 -3.70608 -0.984458
lowerback 8.61603 0.632108 -3.01157
upperback -2.10039 0.538853 0.500602
thorax -7.08755 0.404528 2.14327
lowerneck -10.7137 -8.21121 -12.8234
upperneck 37.0441 -10.4773 3.56957
head 15.8802 -5.82366 1.95776
rclavicle -1.16351e-014 -1.19271e-015
rhumerus -20.2238 -39.4383 -34.8574
rradius 75.9821
rwrist 36.4259
rhand 14.0289 7.35854
rfingers 7.12502
rthumb 38.9368 -18.1796
lclavicle -1.16351e-014 -1.19271e-015
lhumerus -117.211 -58.1198 145.691
lradius 103.411
lwrist 43.2111
lhand 2.69078 7.52994
lfingers 7.12502
lthumb 28.165 35.4342
rfemur -0.652929 14.0965 17.3967
rtibia 18.4661
rfoot -12.5177 -12.5646
rtoes -7.73728
lfemur 2.48211 -9.95091 -18.5139
ltibia 14.7186
lfoot -12.4333 10.0624
ltoes -8.21216
1053
root 0.60782 16.0187 0.211274 -1.13218 -3.68061 -0.985962
lowerback 8.65307 0.630494 -2.99858
upperback -2.05159 0.536111 0.479519
thorax -7.0562 0.401035 2.11408
lowerneck -10.7625 -8.23518 -12.8481
upperneck 36.9978 -10.515 3.61737
head 15.8783 -5.83463 1.97317
rclavicle 9.3553e-015 1.07344e-014
rhumerus -20.2591 -39.4501 -34.8436
rradius 76.0253
rwrist 36.4642
rhand 14.041 7.34632
rfingers 7.12502
rthumb 38.9482 -18.1885
lclavicle 9.3553e-015 1.07344e-014
lhumerus -117.106 -58.1718 145.598
lradius 103.392
lwrist 43.0991
lhand 2.75922 7.48847
lfingers 7.12502
lthumb 28.2304 35.382
rfemur -0.673464 14.058 17.3992
rtibia 18.5743
rfoot -12.5099 -12.6083
rtoes -8.43665
lfemur 2.45737 -9.89147 -18.5176
ltibia 14.8427
lfoot -12.4821 9.95753
ltoes -7.89851
1054
root 0.608254 16.0162 0.21054 -1.12633 -3.67529 -1.01934
lowerback 8.69541 0.622014 -3.01264
upperback -2.03987 0.522087 0.48146
thorax -7.06739 0.394825 2.12598
lowerneck -10.7777 -8.23538 -12.8412
upperneck 36.9296 -10.5173 3.63533
head 15.8481 -5.83113 1.97891
rclavicle -9.90196e-015 2.38542e-015
rhumerus -20.2523 -39.4093 -34.8888
rradius 76.0173
rwrist 36.4874
rhand 13.9288 7.40706
rfingers 7.12502
rthumb 38.8424 -18.1579
lclavicle -9.90196e-015 2.38542e-015
lhumerus -117.034 -58.1495 145.511
lradius 103.422
lwrist 43.0541
lhand 2.69662 7.57196
lfingers 7.12502
lthumb 28.1706 35.4753
rfemur -0.751828 14.0436 17.4314
rtibia 18.7218
rfoot -12.623 -12.5602
rtoes -8.42151
lfemur 2.37017 -9.83205 -18.4685
ltibia 14.9814
lfoot -12.5015 9.88531
ltoes -7.86765
1055
root 0.60832 16.0122 0.209679 -1.11674 -3.69423 -1.01955
lowerback 8.72655 0.637238 -3.06646
upperback -2.02084 0.534371 0.464679
thorax -7.06629 0.402466 2.13674
lowerneck -10.7785 -8.24264 -12.8092
upperneck 36.8267 -10.5366 3.6539
head 15.7966 -5.83095 1.97839
rclavicle 8.54153e-015 -6.36111e-015
rhumerus -20.2856 -39.4021 -34.8833
rradius 76.0192
rwrist 36.4662
rhand 13.9227 7.42451
rfingers 7.12502
rthumb 38.8367 -18.1421
lclavicle 8.54153e-015 -6.36111e-015
lhumerus -117.016 -58.2254 145.479
lradius 103.45
lwrist 43.0481
lhand 2.67952 7.57669
lfingers 7.12502
lthumb 28.1543 35.4827
rfemur -0.857541 14.0584 17.4324
rtibia 18.905
rfoot -12.6908 -12.5724
rtoes -8.44645
lfemur 2.27479 -9.75869 -18.4541
ltibia 15.1348
lfoot -12.58 9.84854
ltoes -8.10609
1056
root 0.609003 16.0102 0.208546 -1.14542 -3.6829 -0.918083
lowerback 8.77622 0.680555 -3.18405
upperback -1.97062 0.57323 0.397767
thorax -7.04455 0.423894 2.12665
lowerneck -10.8529 -8.29215 -12.7562
upperneck 36.7449 -10.6185 3.67893
head 15.7792 -5.8514 1.96209
rclavicle 1.90398e-014 -1.23246e-014
rhumerus -20.3868 -39.4956 -34.7847
rradius 76.0406
rwrist 36.4313
rhand 14.0557 7.40293
rfingers 7.12502
rthumb 38.962 -18.128
lclavicle 1.90398e-014 -1.23246e-014
lhumerus -117.051 -58.3938 145.515
lradius 103.474
lwrist 43.0166
lhand 2.58931 7.4622
lfingers 7.12502
lthumb 28.0681 35.3824
rfemur -0.934322 14.0221 17.322
rtibia 19.0812
rfoot -12.7342 -12.574
rtoes -8.59767
lfemur 2.18075 -9.67467 -18.5578
ltibia 15.3551
lfoot -12.6719 9.74452
ltoes -8.37965
1057
root 0.608834 16.0074 0.205441 -1.15094 -3.65218 -0.918901
lowerback 8.83802 0.698101 -3.21392
upperback -1.94532 0.589194 0.365245
thorax -7.05409 0.432012 2.1066
lowerneck -10.8353 -8.3135 -12.7388
upperneck 36.6401 -10.6816 3.76004
head 15.7336 -5.86386 1.98328
rclavicle 2.48481e-016 -1.39149e-014
rhumerus -20.5018 -39.5266 -34.6827
rradius 76.0526
rwrist 36.3495
rhand 14.1083 7.41364
rfingers 7.12502
rthumb 39.0117 -18.1031
lclavicle 2.48481e-016 -1.39149e-014
lhumerus -117.088 -58.4576 145.537
lradius 103.517
lwrist 42.9646
lhand 2.47702 7.41564
lfingers 7.12502
lthumb 27.9607 35.3534
rfemur -1.0374 14.0218 17.3317
rtibia 19.2668
rfoot -12.7987 -12.6121
rtoes -8.50787
lfemur 2.02778 -9.60722 -18.54
ltibia 15.6114
lfoot -12.7239 9.64483
ltoes -8.53055
1058
root 0.608074 16.0021 0.201396 -1.16442 -3.62811 -0.918671
lowerback 8.91219 0.713526 -3.26175
upperback -1.91884 0.601023 0.350892
thorax -7.06972 0.439363 2.11635
lowerneck -10.7891 -8.31456 -12.8176
upperneck 36.5401 -10.7099 3.88936
head 15.6922 -5.86934 2.04836
rclavicle 6.78353e-015 1.31198e-014
rhumerus -20.5787 -39.5539 -34.592
rradius 76.0189
rwrist 36.322
rhand 14.0742 7.57316
rfingers 7.12502
rthumb 38.9795 -17.9527
lclavicle 6.78353e-015 1.31198e-014
lhumerus -117.143 -58.5038 145.59
lradius 103.533
lwrist 42.9292
lhand 2.38891 7.38479
lfingers 7.12502
lthumb 27.8765 35.3362
rfemur -1.13132 13.983 17.3376
rtibia 19.4734
rfoot -12.8802 -12.605
rtoes -8.63318
lfemur 1.87674 -9.56237 -18.5193
ltibia 15.8545
lfoot -12.7939 9.57052
ltoes -8.37414
1059
root 0.607802 15.9961 0.197316 -1.17598 -3.60219 -0.885511
lowerback 8.98569 0.725641 -3.33167
upperback -1.88851 0.60518 0.326474
thorax -7.08057 0.443516 2.12909
lowerneck -10.8159 -8.32238 -12.8736
upperneck 36.4688 -10.7282 3.97216
head 15.676 -5.87207 2.08835
rclavicle 3.23646e-015 -6.36111e-015
rhumerus -20.6191 -39.5706 -34.5365
rradius 76.0489
rwrist 36.3087
rhand 14.104 7.70056
rfingers 7.12502
rthumb 39.0076 -17.8173
lclavicle 3.23646e-015 -6.36111e-015
lhumerus -117.234 -58.5611 145.684
lradius 103.546
lwrist 42.9078
lhand 2.27229 7.31548
lfingers 7.12502
lthumb 27.765 35.285
rfemur -1.21053 13.9848 17.3089
rtibia 19.6691
rfoot -12.9903 -12.6235
rtoes -9.17968
lfemur 1.7211 -9.48593 -18.5364
ltibia 16.11
lfoot -12.8594 9.5067
ltoes -8.73087
1060
root 0.607039 15.9916 0.194179 -1.17971 -3.59767 -0.785299
lowerback 9.01457 0.760723 -3.48304
upperback -1.8546 0.629806 0.26731
thorax -7.06413 0.459781 2.14827
lowerneck -10.8456 -8.33836 -12.87
upperneck 36.3825 -10.7824 4.07766
head 15.6534 -5.87874 2.12158
rclavicle 4.0316e-015 -6.95746e-015
rhumerus -20.7136 -39.6353 -34.4829
rradius 76.1066
rwrist 36.3391
rhand 14.1271 7.7287
rfingers 7.12502
rthumb 39.0294 -17.7829
lclavicle 4.0316e-015 -6.95746e-015
lhumerus -117.354 -58.6336 145.79
lradius 103.533
lwrist 42.8392
lhand 2.20234 7.23138
lfingers 7.12502
lthumb 27.6981 35.2116
rfemur -1.33155 13.9518 17.1977
rtibia 19.8953
rfoot -13.0285 -12.6314
rtoes -9.72395
lfemur 1.58785 -9.37507 -18.6204
ltibia 16.322
lfoot -12.9066 9.39053
ltoes -8.8154
